<svg width="19" height="14" viewBox="0 0 19 14" fill="none" xmlns="http://www.w3.org/2000/svg">
<circle cx="9.5" cy="7" r="1.25" fill="#32BCAD" fill-opacity="0.1"/>
<path d="M18.5813 1.68747C18.4913 1.63132 18.3885 1.59899 18.2826 1.59352C18.1766 1.58805 18.0711 1.60963 17.9758 1.65622C14.6219 3.29685 12.2266 2.5281 9.69453 1.71716C7.03828 0.866381 4.28438 -0.0125256 0.479688 1.84529C0.373383 1.89628 0.28367 1.9763 0.220909 2.07611C0.158148 2.17592 0.124898 2.29145 0.125 2.40935V11.7789C0.124985 11.8849 0.151952 11.9892 0.203363 12.082C0.254774 12.1747 0.328938 12.2529 0.418875 12.309C0.508813 12.3652 0.611566 12.3976 0.717466 12.4031C0.823365 12.4086 0.928928 12.3871 1.02422 12.3406C4.37813 10.7 6.77344 11.4687 9.30937 12.2797C10.8125 12.7601 12.3437 13.25 14.075 13.25C15.4102 13.25 16.8664 12.9593 18.5211 12.1515C18.6262 12.1002 18.7148 12.0204 18.7768 11.9213C18.8388 11.8221 18.8717 11.7076 18.8719 11.5906V2.22107C18.8728 2.11475 18.8466 2.00995 18.7958 1.91658C18.7449 1.82321 18.6711 1.74435 18.5813 1.68747ZM17.625 11.1929C14.4531 12.6125 12.1367 11.8718 9.69063 11.0898C8.1875 10.6093 6.65625 10.1195 4.925 10.1195C3.70867 10.1254 2.50472 10.3641 1.37813 10.8226V2.80701C4.55 1.38747 6.86641 2.1281 9.3125 2.91013C11.7586 3.69216 14.2766 4.49997 17.625 3.17888V11.1929ZM9.5 4.49997C9.00555 4.49997 8.5222 4.6466 8.11107 4.9213C7.69995 5.196 7.37952 5.58645 7.1903 6.04327C7.00108 6.50008 6.95157 7.00275 7.04804 7.4877C7.1445 7.97265 7.3826 8.41811 7.73223 8.76774C8.08186 9.11737 8.52732 9.35547 9.01227 9.45194C9.49723 9.5484 9.99989 9.49889 10.4567 9.30967C10.9135 9.12045 11.304 8.80002 11.5787 8.3889C11.8534 7.97778 12 7.49443 12 6.99997C12 6.33693 11.7366 5.70105 11.2678 5.23221C10.7989 4.76337 10.163 4.49997 9.5 4.49997ZM9.5 8.24997C9.25277 8.24997 9.0111 8.17666 8.80554 8.03931C8.59998 7.90196 8.43976 7.70674 8.34515 7.47833C8.25054 7.24992 8.22579 6.99859 8.27402 6.75611C8.32225 6.51364 8.4413 6.29091 8.61612 6.11609C8.79093 5.94128 9.01366 5.82222 9.25614 5.77399C9.49861 5.72576 9.74995 5.75052 9.97835 5.84512C10.2068 5.93973 10.402 6.09995 10.5393 6.30551C10.6767 6.51107 10.75 6.75275 10.75 6.99997C10.75 7.3315 10.6183 7.64944 10.3839 7.88386C10.1495 8.11828 9.83152 8.24997 9.5 8.24997ZM3.875 4.49997V8.24997C3.875 8.41573 3.80915 8.57471 3.69194 8.69192C3.57473 8.80913 3.41576 8.87497 3.25 8.87497C3.08424 8.87497 2.92527 8.80913 2.80806 8.69192C2.69085 8.57471 2.625 8.41573 2.625 8.24997V4.49997C2.625 4.33421 2.69085 4.17524 2.80806 4.05803C2.92527 3.94082 3.08424 3.87497 3.25 3.87497C3.41576 3.87497 3.57473 3.94082 3.69194 4.05803C3.80915 4.17524 3.875 4.33421 3.875 4.49997ZM15.125 9.49997V5.74997C15.125 5.58421 15.1908 5.42524 15.3081 5.30803C15.4253 5.19082 15.5842 5.12497 15.75 5.12497C15.9158 5.12497 16.0747 5.19082 16.1919 5.30803C16.3092 5.42524 16.375 5.58421 16.375 5.74997V9.49997C16.375 9.66573 16.3092 9.82471 16.1919 9.94192C16.0747 10.0591 15.9158 10.125 15.75 10.125C15.5842 10.125 15.4253 10.0591 15.3081 9.94192C15.1908 9.82471 15.125 9.66573 15.125 9.49997Z" fill="#32BCAD"/>
</svg>
