<svg width="25" height="24" viewBox="0 0 25 24" fill="none" xmlns="http://www.w3.org/2000/svg">
<rect x="6.1499" y="6" width="13.2" height="4.8" fill="#32BCAD" fill-opacity="0.1"/>
<path fill-rule="evenodd" clip-rule="evenodd" d="M8.25174 2.25092C7.42401 2.25092 6.753 2.92193 6.753 3.74967V5.37641C6.98724 5.29383 7.23925 5.2489 7.50174 5.2489H18.0017C18.2642 5.2489 18.5162 5.29383 18.7505 5.37641V3.74967C18.7505 2.92193 18.0795 2.25092 17.2517 2.25092H8.25174ZM20.253 3.74967C20.253 2.09212 18.9093 0.748413 17.2517 0.748413H8.25174C6.5942 0.748413 5.25049 2.09212 5.25049 3.74967V15.7497C5.25049 17.4072 6.5942 18.7509 8.25174 18.7509H17.2517C18.9093 18.7509 20.253 17.4072 20.253 15.7497V3.74967ZM18.7505 9.00015V7.50015C18.7505 7.08663 18.4153 6.75141 18.0017 6.75141H7.50174C7.08822 6.75141 6.753 7.08663 6.753 7.50015V9.00015C6.753 9.41367 7.08822 9.7489 7.50174 9.7489H18.0017C18.4153 9.7489 18.7505 9.41368 18.7505 9.00015ZM6.753 11.1239C6.98724 11.2065 7.23925 11.2514 7.50174 11.2514H18.0017C18.2642 11.2514 18.5162 11.2065 18.7505 11.1239V15.7497C18.7505 16.5774 18.0795 17.2484 17.2517 17.2484H8.25174C7.42401 17.2484 6.753 16.5774 6.753 15.7497V11.1239ZM9.75097 3.74991C9.75097 3.335 10.0873 2.99866 10.5022 2.99866H15.0055C15.4204 2.99866 15.7568 3.335 15.7568 3.74991C15.7568 4.16482 15.4204 4.50117 15.0055 4.50117H10.5022C10.0873 4.50117 9.75097 4.16482 9.75097 3.74991ZM9.00397 15.0084L9.0041 15.0103C9.00414 15.0104 9.00454 15.0112 9.00558 15.0123C9.00662 15.0133 9.00744 15.0137 9.00756 15.0138M9.00397 15.0084L9.0041 15.0065L9.00397 15.0084ZM7.50146 15.0084C7.50146 14.1756 8.17662 13.5004 9.00946 13.5004C9.84231 13.5004 10.5175 14.1756 10.5175 15.0084C10.5175 15.8412 9.84231 16.5164 9.00946 16.5164C8.17662 16.5164 7.50146 15.8412 7.50146 15.0084ZM16.5038 15.0084L16.5039 15.0103C16.504 15.0104 16.5044 15.0112 16.5054 15.0123C16.5065 15.0133 16.5073 15.0137 16.5074 15.0138M16.5038 15.0084L16.5039 15.0065L16.5038 15.0084ZM15.0013 15.0084C15.0013 14.1756 15.6765 13.5004 16.5093 13.5004C17.3421 13.5004 18.0173 14.1756 18.0173 15.0084C18.0173 15.8412 17.3421 16.5164 16.5093 16.5164C15.6765 16.5164 15.0013 15.8412 15.0013 15.0084ZM9.54364 19.7184C9.83703 20.0118 9.83703 20.4874 9.54364 20.7808L9.32589 20.9986H16.1889L15.9712 20.7808C15.6778 20.4874 15.6778 20.0118 15.9712 19.7184C16.2646 19.425 16.7402 19.425 17.0336 19.7184L19.2944 21.9792C19.5878 22.2726 19.5878 22.7483 19.2944 23.0417C19.0011 23.3351 18.5254 23.3351 18.232 23.0417L17.6914 22.5011H7.82338L7.2828 23.0417C6.98941 23.3351 6.51375 23.3351 6.22036 23.0417C5.92698 22.7483 5.92698 22.2726 6.22036 21.9792L6.89987 21.2997C6.94289 21.2423 6.99392 21.1913 7.05131 21.1483L8.48121 19.7184C8.77459 19.425 9.25026 19.425 9.54364 19.7184Z" fill="#32BCAD"/>
</svg>
