<svg width="18" height="11" viewBox="0 0 18 11" fill="none" xmlns="http://www.w3.org/2000/svg">
<path d="M16.5458 1.94106H0.870833C0.639874 1.94106 0.418374 1.83881 0.255061 1.6568C0.0917483 1.47479 0 1.22793 0 0.970529C0 0.713129 0.0917483 0.466271 0.255061 0.284261C0.418374 0.102252 0.639874 0 0.870833 0H16.5458C16.7768 0 16.9983 0.102252 17.1616 0.284261C17.3249 0.466271 17.4167 0.713129 17.4167 0.970529C17.4167 1.22793 17.3249 1.47479 17.1616 1.6568C16.9983 1.83881 16.7768 1.94106 16.5458 1.94106Z" fill="#4F4F4F"/>
<path d="M13.6436 6.47047H3.77411C3.54315 6.47047 3.32165 6.36822 3.15834 6.18621C2.99503 6.0042 2.90328 5.75734 2.90328 5.49994C2.90328 5.24254 2.99503 4.99568 3.15834 4.81367C3.32165 4.63166 3.54315 4.52941 3.77411 4.52941H13.6436C13.8745 4.52941 14.096 4.63166 14.2593 4.81367C14.4226 4.99568 14.5144 5.24254 14.5144 5.49994C14.5144 5.75734 14.4226 6.0042 14.2593 6.18621C14.096 6.36822 13.8745 6.47047 13.6436 6.47047Z" fill="#4F4F4F"/>
<path d="M10.16 11H7.25681C7.02582 11 6.80429 10.8977 6.64095 10.7157C6.47762 10.5337 6.38585 10.2868 6.38585 10.0293C6.38585 9.7719 6.47762 9.525 6.64095 9.34297C6.80429 9.16093 7.02582 9.05867 7.25681 9.05867H10.16C10.391 9.05867 10.6125 9.16093 10.7759 9.34297C10.9392 9.525 11.031 9.7719 11.031 10.0293C11.031 10.2868 10.9392 10.5337 10.7759 10.7157C10.6125 10.8977 10.391 11 10.16 11Z" fill="#4F4F4F"/>
</svg>
