<svg width="20" height="14" viewBox="0 0 20 14" fill="none" xmlns="http://www.w3.org/2000/svg">
<circle cx="10.25" cy="7" r="1.25" fill="#1C1C1C" fill-opacity="0.1"/>
<path d="M19.3313 1.68747C19.2413 1.63132 19.1385 1.59899 19.0326 1.59352C18.9266 1.58805 18.8211 1.60963 18.7258 1.65622C15.3719 3.29685 12.9766 2.5281 10.4445 1.71716C7.78828 0.866381 5.03438 -0.0125256 1.22969 1.84529C1.12338 1.89628 1.03367 1.9763 0.970909 2.07611C0.908148 2.17592 0.874898 2.29145 0.875 2.40935V11.7789C0.874985 11.8849 0.901952 11.9892 0.953363 12.082C1.00477 12.1747 1.07894 12.2529 1.16888 12.309C1.25881 12.3652 1.36157 12.3976 1.46747 12.4031C1.57337 12.4086 1.67893 12.3871 1.77422 12.3406C5.12813 10.7 7.52344 11.4687 10.0594 12.2797C11.5625 12.7601 13.0937 13.25 14.825 13.25C16.1602 13.25 17.6164 12.9593 19.2711 12.1515C19.3762 12.1002 19.4648 12.0204 19.5268 11.9213C19.5888 11.8221 19.6217 11.7076 19.6219 11.5906V2.22107C19.6228 2.11475 19.5966 2.00995 19.5458 1.91658C19.4949 1.82321 19.4211 1.74435 19.3313 1.68747ZM18.375 11.1929C15.2031 12.6125 12.8867 11.8718 10.4406 11.0898C8.9375 10.6093 7.40625 10.1195 5.675 10.1195C4.45867 10.1254 3.25472 10.3641 2.12813 10.8226V2.80701C5.3 1.38747 7.61641 2.1281 10.0625 2.91013C12.5086 3.69216 15.0266 4.49997 18.375 3.17888V11.1929ZM10.25 4.49997C9.75555 4.49997 9.2722 4.6466 8.86107 4.9213C8.44995 5.196 8.12952 5.58645 7.9403 6.04327C7.75108 6.50008 7.70157 7.00275 7.79804 7.4877C7.8945 7.97265 8.1326 8.41811 8.48223 8.76774C8.83186 9.11737 9.27732 9.35547 9.76227 9.45194C10.2472 9.5484 10.7499 9.49889 11.2067 9.30967C11.6635 9.12045 12.054 8.80002 12.3287 8.3889C12.6034 7.97778 12.75 7.49443 12.75 6.99997C12.75 6.33693 12.4866 5.70105 12.0178 5.23221C11.5489 4.76337 10.913 4.49997 10.25 4.49997ZM10.25 8.24997C10.0028 8.24997 9.7611 8.17666 9.55554 8.03931C9.34998 7.90196 9.18976 7.70674 9.09515 7.47833C9.00054 7.24992 8.97579 6.99859 9.02402 6.75611C9.07225 6.51364 9.1913 6.29091 9.36612 6.11609C9.54093 5.94128 9.76366 5.82222 10.0061 5.77399C10.2486 5.72576 10.4999 5.75052 10.7284 5.84512C10.9568 5.93973 11.152 6.09995 11.2893 6.30551C11.4267 6.51107 11.5 6.75275 11.5 6.99997C11.5 7.3315 11.3683 7.64944 11.1339 7.88386C10.8995 8.11828 10.5815 8.24997 10.25 8.24997ZM4.625 4.49997V8.24997C4.625 8.41573 4.55915 8.57471 4.44194 8.69192C4.32473 8.80913 4.16576 8.87497 4 8.87497C3.83424 8.87497 3.67527 8.80913 3.55806 8.69192C3.44085 8.57471 3.375 8.41573 3.375 8.24997V4.49997C3.375 4.33421 3.44085 4.17524 3.55806 4.05803C3.67527 3.94082 3.83424 3.87497 4 3.87497C4.16576 3.87497 4.32473 3.94082 4.44194 4.05803C4.55915 4.17524 4.625 4.33421 4.625 4.49997ZM15.875 9.49997V5.74997C15.875 5.58421 15.9408 5.42524 16.0581 5.30803C16.1753 5.19082 16.3342 5.12497 16.5 5.12497C16.6658 5.12497 16.8247 5.19082 16.9419 5.30803C17.0592 5.42524 17.125 5.58421 17.125 5.74997V9.49997C17.125 9.66573 17.0592 9.82471 16.9419 9.94192C16.8247 10.0591 16.6658 10.125 16.5 10.125C16.3342 10.125 16.1753 10.0591 16.0581 9.94192C15.9408 9.82471 15.875 9.66573 15.875 9.49997Z" fill="#1C1C1C"/>
</svg>
