<svg width="16" height="24" viewBox="0 0 16 24" fill="none" xmlns="http://www.w3.org/2000/svg">
<path fill-rule="evenodd" clip-rule="evenodd" d="M3.25174 2.25092C2.42401 2.25092 1.753 2.92193 1.753 3.74967V5.37641C1.98724 5.29383 2.23925 5.2489 2.50174 5.2489H13.0017C13.2642 5.2489 13.5162 5.29383 13.7505 5.37641V3.74967C13.7505 2.92193 13.0795 2.25092 12.2517 2.25092H3.25174ZM15.253 3.74967C15.253 2.09212 13.9093 0.748413 12.2517 0.748413H3.25174C1.5942 0.748413 0.250488 2.09212 0.250488 3.74967V15.7497C0.250488 17.4072 1.5942 18.7509 3.25174 18.7509H12.2517C13.9093 18.7509 15.253 17.4072 15.253 15.7497V3.74967ZM13.7505 9.00015V7.50015C13.7505 7.08663 13.4153 6.75141 13.0017 6.75141H2.50174C2.08822 6.75141 1.753 7.08663 1.753 7.50015V9.00015C1.753 9.41367 2.08822 9.7489 2.50174 9.7489H13.0017C13.4153 9.7489 13.7505 9.41368 13.7505 9.00015ZM1.753 11.1239C1.98724 11.2065 2.23925 11.2514 2.50174 11.2514H13.0017C13.2642 11.2514 13.5162 11.2065 13.7505 11.1239V15.7497C13.7505 16.5774 13.0795 17.2484 12.2517 17.2484H3.25174C2.42401 17.2484 1.753 16.5774 1.753 15.7497V11.1239ZM4.75097 3.74991C4.75097 3.335 5.08732 2.99866 5.50223 2.99866H10.0055C10.4204 2.99866 10.7568 3.335 10.7568 3.74991C10.7568 4.16482 10.4204 4.50117 10.0055 4.50117H5.50223C5.08732 4.50117 4.75097 4.16482 4.75097 3.74991ZM4.00397 15.0084L4.0041 15.0103C4.00414 15.0104 4.00454 15.0112 4.00558 15.0123C4.00662 15.0133 4.00744 15.0137 4.00756 15.0138M4.00397 15.0084L4.0041 15.0065L4.00397 15.0084ZM2.50146 15.0084C2.50146 14.1756 3.17662 13.5004 4.00946 13.5004C4.84231 13.5004 5.51747 14.1756 5.51747 15.0084C5.51747 15.8412 4.84231 16.5164 4.00946 16.5164C3.17662 16.5164 2.50146 15.8412 2.50146 15.0084ZM11.5038 15.0084L11.5039 15.0103C11.504 15.0104 11.5044 15.0112 11.5054 15.0123C11.5065 15.0133 11.5073 15.0137 11.5074 15.0138M11.5038 15.0084L11.5039 15.0065L11.5038 15.0084ZM10.0013 15.0084C10.0013 14.1756 10.6765 13.5004 11.5093 13.5004C12.3421 13.5004 13.0173 14.1756 13.0173 15.0084C13.0173 15.8412 12.3421 16.5164 11.5093 16.5164C10.6765 16.5164 10.0013 15.8412 10.0013 15.0084ZM4.54364 19.7184C4.83703 20.0118 4.83703 20.4874 4.54364 20.7808L4.32589 20.9986H11.1889L10.9712 20.7808C10.6778 20.4874 10.6778 20.0118 10.9712 19.7184C11.2646 19.425 11.7402 19.425 12.0336 19.7184L14.2944 21.9792C14.5878 22.2726 14.5878 22.7483 14.2944 23.0417C14.0011 23.3351 13.5254 23.3351 13.232 23.0417L12.6914 22.5011H2.82338L2.2828 23.0417C1.98941 23.3351 1.51375 23.3351 1.22036 23.0417C0.926979 22.7483 0.926979 22.2726 1.22036 21.9792L1.89987 21.2997C1.94289 21.2423 1.99392 21.1913 2.05131 21.1483L3.48121 19.7184C3.77459 19.425 4.25026 19.425 4.54364 19.7184Z" fill="#1C1C1C"/>
</svg>
