<?xml version="1.0" encoding="UTF-8"?>
<svg version="1.1" xmlns="http://www.w3.org/2000/svg" width="138" height="81">
<path d="M0 0 C1.06669922 0.00322266 2.13339844 0.00644531 3.23242188 0.00976562 C4.88661133 0.02233398 4.88661133 0.02233398 6.57421875 0.03515625 C7.69634766 0.03966797 8.81847656 0.04417969 9.97460938 0.04882812 C12.73703385 0.06058312 15.49934873 0.07701548 18.26171875 0.09765625 C18.26171875 0.75765625 18.26171875 1.41765625 18.26171875 2.09765625 C18.94234375 1.76765625 19.62296875 1.43765625 20.32421875 1.09765625 C23.77012113 -0.0754169 26.64569297 -0.04414868 30.26171875 0.09765625 C29.322316 6.5476365 25.77354431 11.56443799 22.51171875 17.09765625 C21.89039063 18.17789062 21.2690625 19.258125 20.62890625 20.37109375 C13.16207343 33.13087136 13.16207343 33.13087136 7.26171875 35.09765625 C5.24363705 35.18079685 3.22289527 35.20501647 1.203125 35.1953125 C0.01267578 35.19208984 -1.17777344 35.18886719 -2.40429688 35.18554688 C-3.64888672 35.17716797 -4.89347656 35.16878906 -6.17578125 35.16015625 C-8.03686523 35.15338867 -8.03686523 35.15338867 -9.93554688 35.14648438 C-12.24146473 35.13775456 -14.54737634 35.1269763 -16.85327148 35.11352539 C-19.14824612 35.10090177 -21.4432719 35.09765625 -23.73828125 35.09765625 C-26.40494792 35.09765625 -29.07161458 35.09765625 -31.73828125 35.09765625 C-30.88642822 29.02716286 -27.65568258 24.42494806 -24.52880859 19.2590332 C-23.49368291 17.54410536 -22.47724077 15.81794587 -21.4609375 14.09179688 C-20.80480469 12.99931641 -20.14867187 11.90683594 -19.47265625 10.78125 C-18.87678711 9.78665771 -18.28091797 8.79206543 -17.66699219 7.76733398 C-15.06703533 4.16853294 -12.59375699 1.66015099 -8.28442383 0.35375977 C-5.50339956 0.0740307 -2.79549965 -0.0149492 0 0 Z M11.26171875 9.09765625 C10.27171875 9.42765625 9.28171875 9.75765625 8.26171875 10.09765625 C7.235625 10.06285156 6.20953125 10.02804687 5.15234375 9.9921875 C1.22531227 9.90370289 -1.94692529 10.03266862 -5.73828125 11.09765625 C-9.17823504 14.79804818 -12.73828125 19.84710264 -12.73828125 25.09765625 C-3.07643645 26.41499869 -3.07643645 26.41499869 5.5546875 23.26953125 C7.0572327 20.93653047 8.18958396 18.65362559 9.26171875 16.09765625 C9.90109375 15.12828125 10.54046875 14.15890625 11.19921875 13.16015625 C11.72515625 12.13921875 11.72515625 12.13921875 12.26171875 11.09765625 C11.93171875 10.43765625 11.60171875 9.77765625 11.26171875 9.09765625 Z " fill="#444141" transform="translate(69.73828125,0.90234375)"/>
<path d="M0 0 C1.98 0 3.96 0 6 0 C6.33 3.63 6.66 7.26 7 11 C11.29 11.33 15.58 11.66 20 12 C20 8.04 20 4.08 20 0 C40.33333333 0 60.66666667 0 81 0 C81 3.96 81 7.92 81 12 C83.97 11.505 83.97 11.505 87 11 C87.33 7.37 87.66 3.74 88 0 C89.98 0 91.96 0 94 0 C94.08074203 2.62561109 94.1403623 5.24875676 94.1875 7.875 C94.21263672 8.62136719 94.23777344 9.36773437 94.26367188 10.13671875 C94.29296875 12.3046875 94.29296875 12.3046875 94 16 C90.29741227 18.46839182 88.40022696 18.20750426 84 18.125 C82.7625 18.10695313 81.525 18.08890625 80.25 18.0703125 C79.1775 18.04710938 78.105 18.02390625 77 18 C76.01 18 75.02 18 74 18 C71.66666667 18 69.33333333 18 67 18 C66.95101562 17.14535156 66.90203125 16.29070313 66.8515625 15.41015625 C66.73941406 13.75306641 66.73941406 13.75306641 66.625 12.0625 C66.52058594 10.40927734 66.52058594 10.40927734 66.4140625 8.72265625 C66.20910156 7.37494141 66.20910156 7.37494141 66 6 C65.01 5.505 65.01 5.505 64 5 C64 9.29 64 13.58 64 18 C61.69 18 59.38 18 57 18 C57 13.71 57 9.42 57 5 C56.34 5 55.68 5 55 5 C55 9.29 55 13.58 55 18 C52.69 18 50.38 18 48 18 C48 13.71 48 9.42 48 5 C45.69 5 43.38 5 41 5 C41 9.29 41 13.58 41 18 C38.69 18 36.38 18 34 18 C34 13.71 34 9.42 34 5 C31.69 5 29.38 5 27 5 C27 9.29 27 13.58 27 18 C23.06231866 18.05381797 19.12536868 18.0935868 15.1875 18.125 C14.06794922 18.14175781 12.94839844 18.15851562 11.79492188 18.17578125 C10.72177734 18.18222656 9.64863281 18.18867187 8.54296875 18.1953125 C7.0583313 18.21102295 7.0583313 18.21102295 5.54370117 18.22705078 C3 18 3 18 0 16 C-0.22107787 13.2114711 -0.28107535 10.65346819 -0.1875 7.875 C-0.17396484 7.12089844 -0.16042969 6.36679687 -0.14648438 5.58984375 C-0.11109985 3.72625873 -0.05729167 1.86304022 0 0 Z " fill="#444242" transform="translate(1,43)"/>
<path d="M0 0 C-0.66511877 3.40485673 -1.98876465 5.99113056 -3.72265625 8.984375 C-4.26083984 9.91894531 -4.79902344 10.85351562 -5.35351562 11.81640625 C-6.19946289 13.26853516 -6.19946289 13.26853516 -7.0625 14.75 C-7.63033203 15.73355469 -8.19816406 16.71710937 -8.78320312 17.73046875 C-10.18445368 20.15616298 -11.59165785 22.57841622 -13 25 C-7.72 25 -2.44 25 3 25 C-0.75 32.75 -0.75 32.75 -3 35 C-5.82654474 35.14630149 -8.55252091 35.18595055 -11.375 35.125 C-12.14328125 35.11597656 -12.9115625 35.10695312 -13.703125 35.09765625 C-15.14117569 35.08024041 -16.57918671 35.0587139 -18.01708984 35.03173828 C-20.01116588 34.99982128 -22.00566855 35 -24 35 C-26.66666667 35 -29.33333333 35 -32 35 C-31.14814697 28.92950661 -27.91740133 24.32729181 -24.79052734 19.16137695 C-23.75540166 17.44644911 -22.73895952 15.72028962 -21.72265625 13.99414062 C-21.06652344 12.90166016 -20.41039062 11.80917969 -19.734375 10.68359375 C-19.13850586 9.68900146 -18.54263672 8.69440918 -17.92871094 7.66967773 C-15.38124049 4.14352719 -12.76948915 1.5444582 -8.5625 0.25 C-5.69213715 -0.0300354 -2.88219242 -0.06702773 0 0 Z " fill="#30BAAC" transform="translate(70,1)"/>
<path d="M0 0 C0.66 0 1.32 0 2 0 C2.33 1.32 2.66 2.64 3 4 C3.33 3.67 3.66 3.34 4 3 C5.99958364 2.95919217 8.00045254 2.95745644 10 3 C10.33 2.01 10.66 1.02 11 0 C13.97 0.495 13.97 0.495 17 1 C17 1.66 17 2.32 17 3 C18.134375 2.979375 19.26875 2.95875 20.4375 2.9375 C24 3 24 3 25 4 C25.14115161 6.67058851 25.04247107 9.32432238 25 12 C21 12 17 12 13 12 C12.4225 12.33 11.845 12.66 11.25 13 C8.39894719 14.26713458 6.08558586 14.1402539 3 14 C2.67 13.34 2.34 12.68 2 12 C0.07361988 11.24756445 0.07361988 11.24756445 -2 11 C-2.99 11.495 -2.99 11.495 -4 12 C-5.99960012 12.039992 -8.00047242 12.04346799 -10 12 C-10 8.37 -10 4.74 -10 1 C-7 1 -4 1 -1 1 C-0.67 0.67 -0.34 0.34 0 0 Z M-7 4 C-7 5.65 -7 7.3 -7 9 C-5.68 8.34 -4.36 7.68 -3 7 C-3.33 6.01 -3.66 5.02 -4 4 C-4.99 4 -5.98 4 -7 4 Z M5 6 C5 6.66 5 7.32 5 8 C5.66 8 6.32 8 7 8 C7 7.34 7 6.68 7 6 C6.34 6 5.68 6 5 6 Z M17 6 C17.33 6.99 17.66 7.98 18 9 C18.33 8.01 18.66 7.02 19 6 C18.34 6 17.68 6 17 6 Z " fill="#454242" transform="translate(11,66)"/>
<path d="M0 0 C0.80566406 0.00322266 1.61132812 0.00644531 2.44140625 0.00976562 C3.70404297 0.02233398 3.70404297 0.02233398 4.9921875 0.03515625 C5.84167969 0.03966797 6.69117187 0.04417969 7.56640625 0.04882812 C9.66669659 0.06062751 11.7669508 0.07856319 13.8671875 0.09765625 C13.8671875 1.74765625 13.8671875 3.39765625 13.8671875 5.09765625 C11.5571875 5.42765625 9.2471875 5.75765625 6.8671875 6.09765625 C9.5071875 7.41765625 12.1471875 8.73765625 14.8671875 10.09765625 C15.1796875 12.41015625 15.1796875 12.41015625 14.8671875 15.09765625 C10.72358421 18.52907772 6.69395379 18.46427277 1.5546875 18.28515625 C0.44383789 18.26485352 0.44383789 18.26485352 -0.68945312 18.24414062 C-2.50422325 18.20901604 -4.31861538 18.15521597 -6.1328125 18.09765625 C-6.1328125 16.11765625 -6.1328125 14.13765625 -6.1328125 12.09765625 C-4.1528125 11.76765625 -2.1728125 11.43765625 -0.1328125 11.09765625 C-2.1128125 10.10765625 -4.0928125 9.11765625 -6.1328125 8.09765625 C-6.1328125 5.78765625 -6.1328125 3.47765625 -6.1328125 1.09765625 C-3.8362755 -0.05061225 -2.54968083 -0.0179555 0 0 Z " fill="#444242" transform="translate(102.1328125,42.90234375)"/>
<path d="M0 0 C6.625 -0.25 6.625 -0.25 10 2 C13.12521833 2.16699232 13.12521833 2.16699232 16 2 C16 1.34 16 0.68 16 0 C16.99 0 17.98 0 19 0 C19 0.66 19 1.32 19 2 C20.134375 1.979375 21.26875 1.95875 22.4375 1.9375 C26 2 26 2 27 3 C27.14115161 5.67058851 27.04247107 8.32432238 27 11 C20 11 13 11 6 11 C5.67 10.01 5.34 9.02 5 8 C4.34 8 3.68 8 3 8 C3 8.99 3 9.98 3 11 C2.01 11 1.02 11 0 11 C0 7.37 0 3.74 0 0 Z M3 3 C3 3.66 3 4.32 3 5 C3.99 4.67 4.98 4.34 6 4 C5.01 3.67 4.02 3.34 3 3 Z M19 5 C19.33 5.99 19.66 6.98 20 8 C20.33 7.01 20.66 6.02 21 5 C20.34 5 19.68 5 19 5 Z " fill="#444141" transform="translate(103,67)"/>
<path d="M0 0 C2.95839355 -0.02689449 5.91654427 -0.04678741 8.875 -0.0625 C9.71675781 -0.07087891 10.55851562 -0.07925781 11.42578125 -0.08789062 C12.23144531 -0.09111328 13.03710938 -0.09433594 13.8671875 -0.09765625 C14.98262939 -0.10551147 14.98262939 -0.10551147 16.12060547 -0.11352539 C18 0 18 0 20 1 C20.9375 3.1875 20.9375 3.1875 21 6 C19.40262593 8.4218252 18.06794419 10.0401194 16 12 C15.10861328 12.84884766 15.10861328 12.84884766 14.19921875 13.71484375 C9.71232495 17.53634649 6.57567749 18.62867982 0.6875 18.2109375 C0.130625 18.14132813 -0.42625 18.07171875 -1 18 C0.52059907 14.11985064 2.86078531 12.26093438 6.125 9.75 C7.03507812 9.04359375 7.94515625 8.3371875 8.8828125 7.609375 C9.58148438 7.07828125 10.28015625 6.5471875 11 6 C7.37 5.67 3.74 5.34 0 5 C0 3.35 0 1.7 0 0 Z " fill="#2FBBAD" transform="translate(117,43)"/>
<path d="M0 0 C2.64 0 5.28 0 8 0 C8 0.66 8 1.32 8 2 C8.66 2 9.32 2 10 2 C10.33 3.32 10.66 4.64 11 6 C11.33 4.68 11.66 3.36 12 2 C12.99 2 13.98 2 15 2 C15 1.34 15 0.68 15 0 C15.99 0 16.98 0 18 0 C18 0.66 18 1.32 18 2 C19.32 2 20.64 2 22 2 C22.33 3.65 22.66 5.3 23 7 C23.33 5.35 23.66 3.7 24 2 C24.99 2 25.98 2 27 2 C27 4.97 27 7.94 27 11 C20.66666667 11 14.33333333 11 8 11 C7.67 9.68 7.34 8.36 7 7 C5.68 7 4.36 7 3 7 C3 8.32 3 9.64 3 11 C2.01 11 1.02 11 0 11 C0 7.37 0 3.74 0 0 Z M3 3 C7 4 7 4 7 4 Z M18 5 C18 5.99 18 6.98 18 8 C18.66 8 19.32 8 20 8 C20 7.01 20 6.02 20 5 C19.34 5 18.68 5 18 5 Z " fill="#444242" transform="translate(44,67)"/>
<path d="M0 0 C1.32 0 2.64 0 4 0 C4 1.98 4 3.96 4 6 C3.34 6 2.68 6 2 6 C2 7.98 2 9.96 2 12 C1.443125 11.814375 0.88625 11.62875 0.3125 11.4375 C-2.05608681 10.83463761 -2.05608681 10.83463761 -4.625 11.5625 C-5.40875 11.706875 -6.1925 11.85125 -7 12 C-9 10 -9 10 -9.125 6.875 C-9.08375 5.92625 -9.0425 4.9775 -9 4 C-7.88625 3.896875 -6.7725 3.79375 -5.625 3.6875 C-4.42875 3.460625 -3.2325 3.23375 -2 3 C-1.34 2.01 -0.68 1.02 0 0 Z M-6 6 C-6 6.99 -6 7.98 -6 9 C-5.34 9 -4.68 9 -4 9 C-4 8.01 -4 7.02 -4 6 C-4.66 6 -5.32 6 -6 6 Z " fill="#434040" transform="translate(96,66)"/>
<path d="M0 0 C1.64574566 -0.02688151 3.29161413 -0.04634123 4.9375 -0.0625 C5.85402344 -0.07410156 6.77054687 -0.08570312 7.71484375 -0.09765625 C10 0 10 0 11 1 C11.04092937 3.33297433 11.04241723 5.66705225 11 8 C6.25 9.125 6.25 9.125 4 8 C3.375 5.9375 3.375 5.9375 3 4 C2.67 5.65 2.34 7.3 2 9 C1.34 9 0.68 9 0 9 C0 6.03 0 3.06 0 0 Z " fill="#434040" transform="translate(72,69)"/>
<path d="M0 0 C1.98 0 3.96 0 6 0 C6 3.96 6 7.92 6 12 C4.02 12 2.04 12 0 12 C0 8.04 0 4.08 0 0 Z " fill="#494747" transform="translate(131,66)"/>
<path d="M0 0 C0.99 0.33 1.98 0.66 3 1 C3 4.3 3 7.6 3 11 C2.01 11.33 1.02 11.66 0 12 C0 8.04 0 4.08 0 0 Z " fill="#4B4949" transform="translate(37,66)"/>
<path d="M0 0 C0.99 0.33 1.98 0.66 3 1 C3 4.63 3 8.26 3 12 C2.01 12 1.02 12 0 12 C0 8.04 0 4.08 0 0 Z " fill="#413E3E" transform="translate(131,66)"/>
</svg>
