<svg width="14" height="15" viewBox="0 0 14 15" fill="none" xmlns="http://www.w3.org/2000/svg">
<path d="M13.8411 10.9577C13.4364 10.2682 12.8347 8.31743 12.8347 5.76948C12.8347 4.23932 12.22 2.77183 11.1259 1.68984C10.0317 0.607854 8.54773 0 7.00036 0C5.453 0 3.96901 0.607854 2.87486 1.68984C1.78071 2.77183 1.16602 4.23932 1.16602 5.76948C1.16602 8.31815 0.563627 10.2682 0.15887 10.9577C0.0555075 11.133 0.000711275 11.3321 6.87793e-06 11.535C-0.00069752 11.7379 0.052715 11.9374 0.154858 12.1134C0.257001 12.2894 0.404262 12.4356 0.58179 12.5373C0.759319 12.6391 0.960838 12.6927 1.16602 12.6929H4.14227C4.27687 13.3442 4.63485 13.9296 5.15564 14.35C5.67644 14.7704 6.32808 15 7.00036 15C7.67264 15 8.32429 14.7704 8.84509 14.35C9.36588 13.9296 9.72386 13.3442 9.85846 12.6929H12.8347C13.0398 12.6926 13.2413 12.6388 13.4187 12.5371C13.5961 12.4353 13.7433 12.289 13.8453 12.1131C13.9474 11.9371 14.0007 11.7377 14 11.5348C13.9993 11.332 13.9445 11.1329 13.8411 10.9577ZM7.00036 13.8468C6.6385 13.8466 6.28557 13.7356 5.99015 13.529C5.69472 13.3223 5.47132 13.0302 5.3507 12.6929H8.65002C8.5294 13.0302 8.30601 13.3223 8.01058 13.529C7.71516 13.7356 7.36223 13.8466 7.00036 13.8468ZM1.16602 11.539C1.72758 10.5841 2.33289 8.37152 2.33289 5.76948C2.33289 4.54535 2.82464 3.37136 3.69996 2.50577C4.57528 1.64018 5.76247 1.1539 7.00036 1.1539C8.23826 1.1539 9.42545 1.64018 10.3008 2.50577C11.1761 3.37136 11.6678 4.54535 11.6678 5.76948C11.6678 8.36935 12.2717 10.5819 12.8347 11.539H1.16602Z" fill="#1C1C1C"/>
</svg>
